<svg width="50" height="36" viewBox="0 0 50 36" fill="none" xmlns="http://www.w3.org/2000/svg">
<path d="M48.8449 7.08934C49.234 9.71656 47.0656 12.2005 44.1321 12.9384C40.743 13.791 36.864 14.6817 32.8847 15.5505C31.2869 18.2706 29.6107 20.8992 28.3578 22.8132C27.2014 24.5799 24.7724 25.6312 22.4954 25.3908C19.892 25.1161 18.3055 23.2453 18.8926 21.0944C19.1223 20.2528 19.3841 19.3101 19.6702 18.3068C15.4458 19.1539 11.6573 19.8859 8.87864 20.4146C6.45176 20.8764 4.18989 19.6463 3.54898 17.6321C3.49974 17.5291 3.45655 17.4223 3.41989 17.312C2.48195 14.4894 1.64941 11.0291 1.08688 8.46933C0.628047 6.38149 2.02878 4.28332 4.32352 3.53276C6.61826 2.7822 9.12134 3.60351 10.1667 5.49951C10.8854 6.80285 11.7281 8.37648 12.5352 9.99197C19.1399 7.46569 28.0724 4.16248 35.8714 1.66903C41.6293 -0.171868 48.0667 1.83491 48.8449 7.08934Z" stroke="#F22FB0" stroke-width="1.5" stroke-linejoin="round"/>
<path d="M1.86401 35L48.0258 35" stroke="#F22FB0" stroke-width="1.5" stroke-linecap="round" stroke-linejoin="round"/>
</svg>
