<svg width="28" height="28" viewBox="0 0 28 28" fill="none" xmlns="http://www.w3.org/2000/svg">
<path d="M14 0C10.1978 0 9.72107 0.0161301 8.2278 0.0842349C6.73767 0.152215 5.71997 0.388914 4.82944 0.73494C3.90882 1.09272 3.12807 1.57145 2.34978 2.34974C1.57145 3.12803 1.09272 3.90886 0.734982 4.82948C0.388873 5.71997 0.152256 6.73767 0.0841932 8.2278C0.0160884 9.72107 0 10.1978 0 14C0 17.8022 0.0160884 18.2789 0.0841932 19.7722C0.152256 21.2623 0.388873 22.28 0.734982 23.1705C1.09276 24.0911 1.5715 24.8719 2.34978 25.6503C3.12811 26.4285 3.90882 26.9073 4.82944 27.2651C5.71997 27.6111 6.73767 27.8477 8.2278 27.9158C9.72107 27.9839 10.1978 28 14 28C17.8022 28 18.2789 27.9839 19.7722 27.9158C21.2623 27.8478 22.28 27.6111 23.1705 27.2651C24.0911 26.9073 24.8719 26.4285 25.6503 25.6503C26.4285 24.8719 26.9073 24.0911 27.2651 23.1705C27.6111 22.28 27.8478 21.2623 27.9158 19.7722C27.9839 18.2789 28 17.8022 28 14C28 10.1978 27.9839 9.72107 27.9158 8.2278C27.8478 6.73767 27.6111 5.71997 27.2651 4.82948C26.9073 3.90886 26.4285 3.12803 25.6503 2.34974C24.8719 1.57145 24.0911 1.09272 23.1705 0.73494C22.28 0.388914 21.2623 0.152215 19.7722 0.0842349C18.2789 0.0161301 17.8022 0 14 0ZM14 2.5225C17.7381 2.5225 18.1809 2.5368 19.6572 2.60415C21.0222 2.66638 21.7635 2.89445 22.2568 3.08618C22.9103 3.34018 23.3767 3.64352 23.8665 4.13343C24.3565 4.62333 24.6598 5.08973 24.9138 5.74319C25.1055 6.23651 25.3336 6.97783 25.3958 8.3428C25.4632 9.81906 25.4775 10.2619 25.4775 14C25.4775 17.7381 25.4632 18.1809 25.3958 19.6572C25.3336 21.0222 25.1055 21.7635 24.9138 22.2568C24.6598 22.9103 24.3565 23.3767 23.8665 23.8665C23.3767 24.3565 22.9103 24.6598 22.2568 24.9138C21.7635 25.1055 21.0222 25.3336 19.6572 25.3958C18.1812 25.4632 17.7384 25.4775 14 25.4775C10.2616 25.4775 9.81889 25.4632 8.3428 25.3958C6.97778 25.3336 6.23651 25.1055 5.74323 24.9138C5.08969 24.6598 4.62333 24.3565 4.13347 23.8665C3.64357 23.3767 3.34018 22.9103 3.08618 22.2568C2.89445 21.7635 2.66642 21.0222 2.60415 19.6572C2.5368 18.1809 2.5225 17.7381 2.5225 14C2.5225 10.2619 2.5368 9.81906 2.60415 8.3428C2.66642 6.97778 2.89445 6.23651 3.08618 5.74323C3.34018 5.08969 3.64357 4.62333 4.13343 4.13347C4.62333 3.64352 5.08973 3.34018 5.74319 3.08618C6.23651 2.89445 6.97783 2.66638 8.3428 2.60415C9.81906 2.5368 10.2619 2.5225 14 2.5225" fill="#F22FB0"/>
<path d="M14 18.6666C11.4226 18.6666 9.33329 16.5773 9.33329 14C9.33329 11.4226 11.4226 9.33326 14 9.33326C16.5773 9.33326 18.6667 11.4226 18.6667 14C18.6667 16.5773 16.5773 18.6666 14 18.6666ZM14 6.81076C10.0295 6.81076 6.81079 10.0294 6.81079 14C6.81079 17.9704 10.0295 21.1891 14 21.1891C17.9705 21.1891 21.1892 17.9704 21.1892 14C21.1892 10.0294 17.9705 6.81076 14 6.81076ZM23.1532 6.52671C23.1532 7.45459 22.401 8.2067 21.4732 8.2067C20.5454 8.2067 19.7932 7.45459 19.7932 6.52671C19.7932 5.59888 20.5454 4.84668 21.4732 4.84668C22.401 4.84668 23.1532 5.59888 23.1532 6.52671Z" fill="#F22FB0"/>
</svg>
