<svg width="25" height="26" viewBox="0 0 25 26" fill="none" xmlns="http://www.w3.org/2000/svg">
<path d="M2.83333 0C1.26853 0 0 1.26853 0 2.83333C0 4.39814 1.26853 5.66667 2.83333 5.66667C4.39814 5.66667 5.66667 4.39814 5.66667 2.83333C5.66667 1.26853 4.39814 0 2.83333 0Z" fill="#F22FB0"/>
<path d="M0.166667 8C0.0746192 8 0 8.07462 0 8.16667V25.5C0 25.592 0.0746192 25.6667 0.166667 25.6667H5.5C5.59205 25.6667 5.66667 25.592 5.66667 25.5V8.16667C5.66667 8.07462 5.59205 8 5.5 8H0.166667Z" fill="#F22FB0"/>
<path d="M8.83333 8C8.74129 8 8.66667 8.07462 8.66667 8.16667V25.5C8.66667 25.592 8.74129 25.6667 8.83333 25.6667H14.1667C14.2587 25.6667 14.3333 25.592 14.3333 25.5V16.1667C14.3333 15.5036 14.5967 14.8677 15.0656 14.3989C15.5344 13.9301 16.1703 13.6667 16.8333 13.6667C17.4964 13.6667 18.1323 13.9301 18.6011 14.3989C19.0699 14.8677 19.3333 15.5036 19.3333 16.1667V25.5C19.3333 25.592 19.408 25.6667 19.5 25.6667H24.8333C24.9254 25.6667 25 25.592 25 25.5V14.007C25 10.7713 22.1859 8.23999 18.9665 8.53266C17.9736 8.62292 16.9919 8.86974 16.0753 9.26259L14.3333 10.0091V8.16667C14.3333 8.07462 14.2587 8 14.1667 8H8.83333Z" fill="#F22FB0"/>
</svg>
