<svg width="174" height="40" viewBox="0 0 174 40" fill="none" xmlns="http://www.w3.org/2000/svg">
<g clip-path="url(#clip0_1_22)">
<path d="M19 17L20.25 14.25L23 13L20.25 11.75L19 9L17.75 11.75L15 13L17.75 14.25L19 17Z" fill="#162950"/>
<path d="M19 23L17.75 25.75L15 27L17.75 28.25L19 31L20.25 28.25L23 27L20.25 25.75L19 23Z" fill="#162950"/>
<path d="M11.5 17.5L9 12L6.5 17.5L1 20L6.5 22.5L9 28L11.5 22.5L17 20L11.5 17.5ZM9.99 20.99L9 23.17L8.01 20.99L5.83 20L8.01 19.01L9 16.83L9.99 19.01L12.17 20L9.99 20.99Z" fill="#162950"/>
</g>
<path d="M36.6444 27V15.64H32.1644V13H44.3644V15.64H39.8844V27H36.6444ZM52.8277 16.08C53.681 16.08 54.441 16.2533 55.1077 16.6C55.7877 16.9333 56.321 17.4533 56.7077 18.16C57.0943 18.8533 57.2877 19.7467 57.2877 20.84V27H54.1677V21.32C54.1677 20.4533 53.9743 19.8133 53.5877 19.4C53.2143 18.9867 52.681 18.78 51.9877 18.78C51.4943 18.78 51.0477 18.8867 50.6477 19.1C50.261 19.3 49.9543 19.6133 49.7277 20.04C49.5143 20.4667 49.4077 21.0133 49.4077 21.68V27H46.2877V12.16H49.4077V19.22L48.7077 18.32C49.0943 17.6 49.6477 17.0467 50.3677 16.66C51.0877 16.2733 51.9077 16.08 52.8277 16.08ZM67.1158 27V24.9L66.9158 24.44V20.68C66.9158 20.0133 66.7091 19.4933 66.2958 19.12C65.8958 18.7467 65.2758 18.56 64.4358 18.56C63.8624 18.56 63.2958 18.6533 62.7358 18.84C62.1891 19.0133 61.7224 19.2533 61.3358 19.56L60.2158 17.38C60.8024 16.9667 61.5091 16.6467 62.3358 16.42C63.1624 16.1933 64.0024 16.08 64.8558 16.08C66.4958 16.08 67.7691 16.4667 68.6758 17.24C69.5824 18.0133 70.0358 19.22 70.0358 20.86V27H67.1158ZM63.8358 27.16C62.9958 27.16 62.2758 27.02 61.6758 26.74C61.0758 26.4467 60.6158 26.0533 60.2958 25.56C59.9758 25.0667 59.8158 24.5133 59.8158 23.9C59.8158 23.26 59.9691 22.7 60.2758 22.22C60.5958 21.74 61.0958 21.3667 61.7758 21.1C62.4558 20.82 63.3424 20.68 64.4358 20.68H67.2958V22.5H64.7758C64.0424 22.5 63.5358 22.62 63.2558 22.86C62.9891 23.1 62.8558 23.4 62.8558 23.76C62.8558 24.16 63.0091 24.48 63.3158 24.72C63.6358 24.9467 64.0691 25.06 64.6158 25.06C65.1358 25.06 65.6024 24.94 66.0158 24.7C66.4291 24.4467 66.7291 24.08 66.9158 23.6L67.3958 25.04C67.1691 25.7333 66.7558 26.26 66.1558 26.62C65.5558 26.98 64.7824 27.16 63.8358 27.16ZM73.2595 27V12.16H76.3795V27H73.2595ZM79.6752 27V16.24H82.7952V27H79.6752ZM79.4152 14.86L82.1152 11.98H85.4752L81.8552 14.86H79.4152ZM92.6908 27V24.9L92.4908 24.44V20.68C92.4908 20.0133 92.2841 19.4933 91.8708 19.12C91.4708 18.7467 90.8508 18.56 90.0108 18.56C89.4374 18.56 88.8708 18.6533 88.3108 18.84C87.7641 19.0133 87.2974 19.2533 86.9108 19.56L85.7908 17.38C86.3774 16.9667 87.0841 16.6467 87.9108 16.42C88.7374 16.1933 89.5774 16.08 90.4308 16.08C92.0708 16.08 93.3441 16.4667 94.2508 17.24C95.1574 18.0133 95.6108 19.22 95.6108 20.86V27H92.6908ZM89.4108 27.16C88.5708 27.16 87.8508 27.02 87.2508 26.74C86.6508 26.4467 86.1908 26.0533 85.8708 25.56C85.5508 25.0667 85.3908 24.5133 85.3908 23.9C85.3908 23.26 85.5441 22.7 85.8508 22.22C86.1708 21.74 86.6708 21.3667 87.3508 21.1C88.0308 20.82 88.9174 20.68 90.0108 20.68H92.8708V22.5H90.3508C89.6174 22.5 89.1108 22.62 88.8308 22.86C88.5641 23.1 88.4308 23.4 88.4308 23.76C88.4308 24.16 88.5841 24.48 88.8908 24.72C89.2108 24.9467 89.6441 25.06 90.1908 25.06C90.7108 25.06 91.1774 24.94 91.5908 24.7C92.0041 24.4467 92.3041 24.08 92.4908 23.6L92.9708 25.04C92.7441 25.7333 92.3308 26.26 91.7308 26.62C91.1308 26.98 90.3574 27.16 89.4108 27.16ZM103.279 27L109.519 13H112.719L118.979 27H115.579L110.459 14.64H111.739L106.599 27H103.279ZM106.399 24L107.259 21.54H114.459L115.339 24H106.399ZM120.611 27V16.24H123.591V19.28L123.171 18.4C123.491 17.64 124.004 17.0667 124.711 16.68C125.418 16.28 126.278 16.08 127.291 16.08V18.96C127.158 18.9467 127.038 18.94 126.931 18.94C126.824 18.9267 126.711 18.92 126.591 18.92C125.738 18.92 125.044 19.1667 124.511 19.66C123.991 20.14 123.731 20.8933 123.731 21.92V27H120.611ZM135.443 27V24.9L135.243 24.44V20.68C135.243 20.0133 135.036 19.4933 134.623 19.12C134.223 18.7467 133.603 18.56 132.763 18.56C132.19 18.56 131.623 18.6533 131.063 18.84C130.516 19.0133 130.05 19.2533 129.663 19.56L128.543 17.38C129.13 16.9667 129.836 16.6467 130.663 16.42C131.49 16.1933 132.33 16.08 133.183 16.08C134.823 16.08 136.096 16.4667 137.003 17.24C137.91 18.0133 138.363 19.22 138.363 20.86V27H135.443ZM132.163 27.16C131.323 27.16 130.603 27.02 130.003 26.74C129.403 26.4467 128.943 26.0533 128.623 25.56C128.303 25.0667 128.143 24.5133 128.143 23.9C128.143 23.26 128.296 22.7 128.603 22.22C128.923 21.74 129.423 21.3667 130.103 21.1C130.783 20.82 131.67 20.68 132.763 20.68H135.623V22.5H133.103C132.37 22.5 131.863 22.62 131.583 22.86C131.316 23.1 131.183 23.4 131.183 23.76C131.183 24.16 131.336 24.48 131.643 24.72C131.963 24.9467 132.396 25.06 132.943 25.06C133.463 25.06 133.93 24.94 134.343 24.7C134.756 24.4467 135.056 24.08 135.243 23.6L135.723 25.04C135.496 25.7333 135.083 26.26 134.483 26.62C133.883 26.98 133.11 27.16 132.163 27.16ZM146.127 27.16C145.234 27.16 144.434 26.9867 143.727 26.64C143.034 26.2933 142.494 25.7667 142.107 25.06C141.72 24.34 141.527 23.4267 141.527 22.32V16.24H144.647V21.86C144.647 22.7533 144.834 23.4133 145.207 23.84C145.594 24.2533 146.134 24.46 146.827 24.46C147.307 24.46 147.734 24.36 148.107 24.16C148.48 23.9467 148.774 23.6267 148.987 23.2C149.2 22.76 149.307 22.2133 149.307 21.56V16.24H152.427V27H149.467V24.04L150.007 24.9C149.647 25.6467 149.114 26.2133 148.407 26.6C147.714 26.9733 146.954 27.16 146.127 27.16ZM145.147 14.86L147.847 11.98H151.207L147.587 14.86H145.147ZM154.917 31.04C154.437 31.04 153.977 30.9867 153.537 30.88C153.097 30.7867 152.724 30.64 152.417 30.44L153.257 28.18C153.617 28.4333 154.057 28.56 154.577 28.56C154.964 28.56 155.271 28.4267 155.497 28.16C155.737 27.9067 155.857 27.52 155.857 27V16.24H158.977V26.98C158.977 28.22 158.624 29.2067 157.917 29.94C157.211 30.6733 156.211 31.04 154.917 31.04ZM157.417 14.74C156.844 14.74 156.377 14.5733 156.017 14.24C155.657 13.9067 155.477 13.4933 155.477 13C155.477 12.5067 155.657 12.0933 156.017 11.76C156.377 11.4267 156.844 11.26 157.417 11.26C157.991 11.26 158.457 11.42 158.817 11.74C159.177 12.0467 159.357 12.4467 159.357 12.94C159.357 13.46 159.177 13.8933 158.817 14.24C158.471 14.5733 158.004 14.74 157.417 14.74ZM167.37 27.16C166.223 27.16 165.203 26.92 164.31 26.44C163.43 25.96 162.73 25.3067 162.21 24.48C161.703 23.64 161.45 22.6867 161.45 21.62C161.45 20.54 161.703 19.5867 162.21 18.76C162.73 17.92 163.43 17.2667 164.31 16.8C165.203 16.32 166.223 16.08 167.37 16.08C168.503 16.08 169.517 16.32 170.41 16.8C171.303 17.2667 172.003 17.9133 172.51 18.74C173.017 19.5667 173.27 20.5267 173.27 21.62C173.27 22.6867 173.017 23.64 172.51 24.48C172.003 25.3067 171.303 25.96 170.41 26.44C169.517 26.92 168.503 27.16 167.37 27.16ZM167.37 24.6C167.89 24.6 168.357 24.48 168.77 24.24C169.183 24 169.51 23.66 169.75 23.22C169.99 22.7667 170.11 22.2333 170.11 21.62C170.11 20.9933 169.99 20.46 169.75 20.02C169.51 19.58 169.183 19.24 168.77 19C168.357 18.76 167.89 18.64 167.37 18.64C166.85 18.64 166.383 18.76 165.97 19C165.557 19.24 165.223 19.58 164.97 20.02C164.73 20.46 164.61 20.9933 164.61 21.62C164.61 22.2333 164.73 22.7667 164.97 23.22C165.223 23.66 165.557 24 165.97 24.24C166.383 24.48 166.85 24.6 167.37 24.6Z" fill="#162950"/>
<defs>
<clipPath id="clip0_1_22">
<rect width="24" height="24" fill="white" transform="translate(0 8)"/>
</clipPath>
</defs>
</svg>
