<svg width="40" height="40" viewBox="0 0 40 40" fill="none" xmlns="http://www.w3.org/2000/svg">
<path d="M36.8071 37.528H35.5142C34.1427 37.528 32.8273 36.9831 31.8575 36.0133C30.8877 35.0435 30.3428 33.7281 30.3428 32.3566C30.3428 33.7281 29.798 35.0435 28.8281 36.0133C27.8583 36.9831 26.5429 37.528 25.1714 37.528C23.7998 37.528 22.4845 36.9831 21.5146 36.0133C20.5448 35.0435 20 33.7281 20 32.3566C20 33.7281 19.4551 35.0435 18.4853 36.0133C17.5155 36.9831 16.2001 37.528 14.8286 37.528C13.457 37.528 12.1416 36.9831 11.1718 36.0133C10.202 35.0435 9.65714 33.7281 9.65714 32.3566C9.65714 33.7281 9.1123 35.0435 8.14247 36.0133C7.17264 36.9831 5.85727 37.528 4.48573 37.528H3.19287" stroke="#F22FB0" stroke-width="1.5" stroke-linecap="round" stroke-linejoin="round"/>
<path d="M28.132 26.5206C26.752 24.8428 25.0176 23.4915 23.0532 22.5638C21.0889 21.6361 18.9435 21.1549 16.7711 21.1549C14.5987 21.1549 12.4533 21.6361 10.4889 22.5638C8.52461 23.4915 6.79015 24.8428 5.41016 26.5206" stroke="#F22FB0" stroke-width="1.5" stroke-linecap="round" stroke-linejoin="round"/>
<path d="M18.7534 21.2958C18.9142 15.2402 20.763 9.72047 24.7822 7.73767" stroke="#F22FB0" stroke-width="1.5" stroke-linecap="round" stroke-linejoin="round"/>
<path d="M16.771 2.64662C18.5079 2.30461 20.3098 2.64196 21.8054 3.58915C23.301 4.53633 24.3762 6.02117 24.8094 7.73761" stroke="#F22FB0" stroke-width="1.5" stroke-linecap="round" stroke-linejoin="round"/>
<path d="M34.5893 8.72895C33.3561 7.39733 31.6791 6.56177 29.8733 6.37922C28.0676 6.19667 26.2573 6.67969 24.7825 7.73755" stroke="#F22FB0" stroke-width="1.5" stroke-linecap="round" stroke-linejoin="round"/>
<path d="M14.949 10.6046C15.9989 9.05778 17.5552 7.92527 19.35 7.40199C21.1448 6.87871 23.0659 6.99739 24.7826 7.73759C26.5046 8.15874 27.9955 9.23267 28.9405 10.7326C29.8854 12.2325 30.2104 14.0409 29.8468 15.776" stroke="#F22FB0" stroke-width="1.5" stroke-linecap="round" stroke-linejoin="round"/>
</svg>
