<svg width="32" height="30" viewBox="0 0 32 30" fill="none" xmlns="http://www.w3.org/2000/svg">
<path d="M24.7759 11.0688L24.5475 11.7106L25.1645 11.9995L31.0832 14.7709C31.0833 14.7709 31.0834 14.771 31.0835 14.771C31.216 14.8333 31.2503 14.9255 31.25 14.9975C31.2497 15.069 31.2144 15.1675 31.071 15.2348C31.0709 15.2349 31.0708 15.2349 31.0707 15.235L25.1519 18.0063L24.535 18.2952L24.7634 18.937L26.8573 24.8198L26.8572 24.8199L26.859 24.8246C26.8877 24.9037 26.8739 24.9825 26.7931 25.0583C26.7085 25.1376 26.5727 25.1832 26.4179 25.1355C26.4177 25.1354 26.4175 25.1353 26.4172 25.1352L20.1436 23.1729L19.5502 22.9872L19.2578 23.536L16.3016 29.0845C16.3016 29.0846 16.3015 29.0846 16.3015 29.0846C16.2502 29.1809 16.1431 29.25 15.9945 29.25C15.846 29.25 15.7389 29.1809 15.6875 29.0846C15.6875 29.0846 15.6875 29.0846 15.6875 29.0845L12.7312 23.536L12.4389 22.9872L11.8454 23.1729L5.57013 25.1358L5.56582 25.1371C5.41702 25.1847 5.28507 25.1418 5.20067 25.0627C5.11969 24.9868 5.10242 24.9036 5.13229 24.8185C5.13234 24.8183 5.1324 24.8181 5.13245 24.818L7.22572 18.931L7.45389 18.2893L6.8371 18.0005L0.918342 15.2291C0.785577 15.1669 0.75 15.0737 0.75 15C0.75 14.9263 0.785577 14.8331 0.918342 14.7709L0.918617 14.7708L6.83766 11.9934L7.4539 11.7043L7.22565 11.063L5.13179 5.18015L5.13181 5.18014L5.1301 5.17543C5.10133 5.0963 5.11514 5.01749 5.19598 4.9417C5.28062 4.86235 5.41653 4.81678 5.57133 4.86461C5.5715 4.86466 5.57167 4.86472 5.57184 4.86477L11.8519 6.82719L12.4452 7.01259L12.7375 6.46399L15.6937 0.915455C15.7451 0.819135 15.8522 0.75 16.0008 0.75C16.1493 0.75 16.2564 0.819135 16.3078 0.915454L19.2705 6.47014L19.5629 7.01853L20.1561 6.83299L26.4314 4.87011L26.4357 4.86873C26.5845 4.8212 26.7165 4.86404 26.8009 4.94316C26.8819 5.01909 26.8991 5.10232 26.8693 5.18743C26.8692 5.18758 26.8692 5.18773 26.8691 5.18787L24.7759 11.0688ZM10.7505 15C10.7505 12.3595 13.0622 10.125 16.0008 10.125C18.9393 10.125 21.2511 12.3595 21.2511 15C21.2511 17.6405 18.9393 19.875 16.0008 19.875C13.0622 19.875 10.7505 17.6405 10.7505 15ZM9.83131 20.8499C13.2387 24.0442 18.7629 24.0442 22.1702 20.8499C25.6052 17.6298 25.6052 12.3702 22.1702 9.1501C18.7629 5.95583 13.2387 5.95583 9.83131 9.1501C6.39633 12.3702 6.39633 17.6298 9.83131 20.8499Z" fill="#F34711" stroke="black" stroke-width="1.5"/>
</svg>
